<svg width="335" height="305" viewBox="0 0 335 305" fill="none" xmlns="http://www.w3.org/2000/svg">
<mask id="mask0_40_210" style="mask-type:luminance" maskUnits="userSpaceOnUse" x="0" y="0" width="335" height="305">
<path d="M335 0H0V305H335V0Z" fill="white"/>
</mask>
<g mask="url(#mask0_40_210)">
<path d="M306.684 48.536C300.816 36.403 289.678 26.221 276.338 24.3C260.211 21.977 244.89 31.67 232.508 42.261C220.126 52.852 208.272 65.173 192.68 69.899C164.789 78.352 135.917 59.889 106.772 59.699C97.232 59.6927 87.7919 61.6408 79.0337 65.4232C70.2756 69.2055 62.3852 74.7419 55.849 81.691C7.57399 133.61 55.725 216.932 111.038 239.804C155.694 258.27 209.197 247.835 248.276 219.41C285.551 192.296 308.502 144.697 312.768 98.785C313.101 95.179 313.32 91.587 313.425 88.009C313.812 74.535 312.55 60.671 306.684 48.536Z" fill="#EFEFEF"/>
<path d="M97.9278 29.8369C101.534 22.2039 114.495 21.8049 118.097 29.7699C118.939 31.6799 119.249 33.7817 118.996 35.8535C118.742 37.9254 117.934 39.8903 116.657 41.5409C114.905 43.5976 112.485 44.9724 109.822 45.4247C107.158 45.877 104.42 45.378 102.088 44.0149C99.8406 42.5158 98.1924 40.2738 97.4318 37.6817C96.6713 35.0897 96.8468 32.3126 97.9278 29.8369Z" fill="#EFEFEF"/>
<path d="M49.3209 46.035C48.5418 45.8309 47.7459 45.697 46.9429 45.635C40.4429 45.135 33.6269 49.987 32.2869 56.401C30.6779 64.101 36.0159 72.633 43.6799 74.401C51.3439 76.169 59.9649 70.701 61.4799 62.988C62.9509 55.53 56.5359 47.918 49.3209 46.035Z" fill="#EFEFEF"/>
<path d="M82.3008 152.844L66.834 171.59L71.7549 178.621L152.838 207.443L157.995 206.273L171.119 184.946L82.3008 152.844Z" fill="white"/>
<path d="M174.871 184.245L190.571 207.914L196.196 205.57L278.687 175.339L277.045 168.31L263.218 152.61L174.871 184.245Z" fill="white"/>
<path d="M90.739 149.562V152.843L104.097 157.53L169.714 184.245L189.399 179.09L221.036 166.67L261.578 150.97L229.707 139.488L176.275 121.443L163.621 123.083L90.739 149.562Z" fill="#FA9B1B"/>
<path d="M172.746 126.013V281.754L176.946 283.411L260.615 254.003L262.687 248.617L265.172 185.244V182.344L204.283 202.644L189.783 207.615L180.678 197.259L174.465 187.733L172.746 126.013Z" fill="white"/>
<path d="M82.3019 184.479C80.8959 187.057 82.3019 246.112 82.3019 246.112L84.6459 253.377L87.2238 255.955L169.948 284.311H172.994V189.635H169.948L166.433 193.853L161.277 199.946L156.356 206.746L154.481 208.152L149.794 206.746L102.221 189.639C102.221 189.639 83.7079 181.901 82.3019 184.479Z" fill="white"/>
<path d="M172.771 285.75C168.297 285.73 163.859 284.942 159.651 283.421C137.992 275.721 114.424 267.294 87.6011 257.673C82.3471 255.788 79.3301 251.367 79.3231 245.543L79.3182 240.343C79.2992 223.001 79.28 205.07 79.377 187.435C79.392 184.754 78.3921 183.402 75.9261 182.771C74.2727 182.312 72.6469 181.759 71.0562 181.116L70.2801 180.816C69.0617 180.419 67.9527 179.743 67.0408 178.843C66.129 177.943 65.4396 176.842 65.0272 175.629C64.7003 174.418 64.6604 173.147 64.9107 171.918C65.161 170.689 65.6946 169.536 66.4691 168.549C69.9511 163.667 74.5691 157.235 79.4171 150.766C80.1536 149.812 81.1371 149.078 82.2611 148.644C94.0951 144.41 106.14 140.136 117.787 136.003C130.496 131.494 143.637 126.83 156.548 122.203C161.725 120.317 167.189 119.341 172.699 119.316C178.469 119.355 184.188 120.4 189.599 122.405C194.96 124.347 200.427 126.273 205.713 128.136C208.209 129.015 210.703 129.896 213.196 130.779C213.584 130.917 213.906 131.033 214.215 131.173C216.015 131.984 216.766 133.36 216.215 134.853C216.049 135.419 215.702 135.916 215.227 136.267C214.752 136.617 214.175 136.802 213.585 136.794C213.128 136.788 212.676 136.706 212.246 136.551C209.318 135.534 206.346 134.47 203.475 133.44C199.992 132.191 196.39 130.9 192.826 129.682C188.878 128.333 184.816 127.131 180.888 125.969L180.298 125.795C179.561 125.604 178.807 125.492 178.046 125.461C177.689 125.433 177.316 125.405 176.922 125.361L175.874 125.238V179.917L254.196 151.922L252.046 150.973C251.638 150.793 251.294 150.635 250.992 150.496C250.427 150.236 249.98 150.031 249.51 149.863C246.793 148.89 244.075 147.92 241.356 146.953C237.681 145.644 234.007 144.33 230.334 143.013C229.007 142.535 226.89 141.396 227.634 139.142C227.778 138.564 228.12 138.055 228.599 137.701C229.079 137.348 229.666 137.173 230.261 137.207C230.926 137.222 231.584 137.349 232.207 137.583L234.896 138.532C244.21 141.816 253.842 145.211 263.272 148.659C264.462 149.135 265.5 149.927 266.272 150.95C270.558 156.661 274.737 162.498 278.65 167.986C280.559 170.663 281.187 173.318 280.469 175.665C279.74 178.044 277.688 179.923 274.536 181.098C273.517 181.478 272.5 181.856 271.475 182.216C266.421 183.995 266.175 184.349 266.175 189.785V195.04C266.175 199.379 266.172 203.719 266.167 208.059C266.167 209.439 265.786 211.759 263.305 211.759C260.851 211.759 260.481 209.431 260.478 208.045C260.469 203.94 260.469 199.835 260.478 195.73L260.484 190.475V186.318L259.27 186.694C258.87 186.818 258.508 186.926 258.17 187.027C257.492 187.227 256.906 187.405 256.32 187.614C245.368 191.523 234.417 195.434 223.466 199.347C214.441 202.57 205.416 205.794 196.39 209.017C194.874 209.624 193.266 209.968 191.635 210.035C189.035 210.035 187.055 208.703 184.568 205.287L175.883 193.358V280.068L177.05 279.768C177.793 279.581 178.529 279.413 179.256 279.248C180.827 278.923 182.377 278.507 183.899 278.002C197.515 273.202 211.338 268.264 224.706 263.488L228.649 262.08C236.211 259.379 243.767 256.667 251.32 253.942L255.081 252.588C259.06 251.156 260.474 249.141 260.481 244.888C260.486 242.303 260.486 239.719 260.481 237.134C260.481 233.939 260.483 230.745 260.487 227.55C260.487 226.161 260.862 223.83 263.305 223.829C265.78 223.829 266.157 226.145 266.161 227.529C266.179 233.17 266.183 238.993 266.173 245.329C266.163 251.543 263.237 255.752 257.473 257.84C249.265 260.814 240.9 263.794 232.811 266.676C229.502 267.854 226.194 269.034 222.886 270.215L210.135 274.769C202.12 277.631 194.106 280.495 186.092 283.36C181.822 284.916 177.316 285.725 172.771 285.75ZM85.3931 187.389C85.3481 187.599 85.3082 187.761 85.2752 187.889C85.204 188.126 85.1639 188.372 85.1561 188.62V192.304C85.1561 209.904 85.1561 228.104 85.1761 246.004C85.1761 249.114 86.8371 251.348 89.9671 252.464L107.617 258.764C125.367 265.101 143.717 271.654 161.784 278.064C163.269 278.559 164.782 278.962 166.316 279.273C167.043 279.437 167.785 279.603 168.541 279.793L169.706 280.085V193.232C169.706 193.232 166.394 197.801 165.628 198.855C163.989 201.111 162.463 203.212 160.95 205.322C158.528 208.701 156.55 210.022 153.88 210.022C152.248 209.956 150.639 209.615 149.12 209.013C140.683 205.996 132.247 202.976 123.812 199.953C115.587 197.007 107.36 194.062 99.1331 191.119C96.3331 190.119 93.52 189.13 90.647 188.119L85.616 186.35L85.3931 187.389ZM261.176 155.789C260.538 155.81 259.909 155.943 259.317 156.182C244.397 161.558 229.21 166.982 214.524 172.225L201.167 176.996C196.112 178.802 191.058 180.612 185.867 182.469L177.361 185.514L178.095 186.526C179 187.773 179.893 189.007 180.775 190.226C184 194.687 187.046 198.9 190.221 203.091C190.535 203.394 190.909 203.627 191.319 203.776C191.729 203.925 192.165 203.987 192.6 203.957C193.039 203.962 193.475 203.894 193.892 203.757C221.123 194.087 248.661 184.229 272.335 175.749C273.596 175.297 274.583 174.879 274.869 173.956C275.155 173.033 274.569 172.128 273.784 171.036C272.717 169.558 271.642 168.085 270.557 166.617C268.395 163.671 266.157 160.625 264.057 157.572C263.766 157.057 263.35 156.625 262.847 156.313C262.344 156.002 261.772 155.822 261.181 155.791L261.176 155.789ZM84.3052 155.714C83.7595 155.74 83.229 155.904 82.764 156.191C82.2989 156.478 81.9142 156.878 81.6461 157.354C79.2661 160.743 76.7801 164.147 74.3751 167.439C73.5991 168.501 72.8241 169.564 72.0501 170.627C71.0101 172.056 70.3892 172.981 70.6912 173.961C70.9912 174.918 71.9971 175.34 73.6231 175.921C78.1311 177.53 82.6402 179.136 87.1502 180.739C92.7055 182.716 98.2603 184.695 103.815 186.678C107.986 188.169 112.157 189.662 116.327 191.156C127.892 195.297 139.851 199.578 151.627 203.744C152.075 203.889 152.545 203.96 153.016 203.954C153.437 203.988 153.859 203.932 154.256 203.789C154.653 203.646 155.014 203.419 155.316 203.125C158.489 198.931 161.516 194.731 164.723 190.285C165.597 189.072 166.479 187.851 167.369 186.62L168.028 185.709L167.014 185.224C166.745 185.096 166.522 184.984 166.328 184.886C166.007 184.714 165.675 184.563 165.334 184.433L145.177 177.238C125.716 170.293 105.592 163.111 85.8101 156.017C85.3294 155.831 84.8205 155.729 84.3052 155.716V155.714ZM168.752 125.558C164.184 125.558 101.015 147.01 93.6522 151.058L91.8292 152.058L169.739 179.93V125.59L168.839 125.553L168.752 125.558Z" fill="black"/>
<path d="M175.084 66.4559C175.084 66.4559 157.863 51.0927 148.184 63.0887C138.505 75.0847 156.603 103.919 167.758 107.289C178.913 110.659 174.828 109.058 180.721 107.479C186.614 105.9 186.7 104.763 191.33 100.979C195.96 97.1953 210.693 79.0904 205.43 67.9354C200.167 56.7804 185.43 55.3076 183.12 59.0956C180.81 62.8836 175.084 66.4559 175.084 66.4559Z" fill="white"/>
<path d="M168.702 109.857C168.28 109.856 167.866 109.743 167.502 109.528C151.402 100.036 142.171 86.7062 142.157 72.9472C142.153 69.1128 143.397 65.3813 145.703 62.3173C148.008 59.2533 151.249 57.0237 154.934 55.9656C158.62 54.9076 162.55 55.0789 166.129 56.4535C169.709 57.8282 172.743 60.3313 174.773 63.5842L175.073 64.0712L175.385 63.5902C176.943 61.0576 179.12 58.9631 181.711 57.504C184.301 56.0449 187.221 55.2693 190.194 55.2502C198.941 55.2502 207.994 61.8442 208.007 72.8792C208.021 86.6792 199.028 99.6792 182.683 109.498C182.146 109.788 181.519 109.859 180.93 109.697C180.342 109.536 179.839 109.154 179.525 108.631C179.211 108.108 179.111 107.484 179.246 106.889C179.38 106.294 179.738 105.774 180.246 105.436C188.852 100.268 203.286 89.1682 203.269 72.8872C203.265 70.0382 202.319 67.2706 200.578 65.0154C198.836 62.7602 196.398 61.1442 193.643 60.419C190.888 59.6937 187.97 59.9 185.345 61.0058C182.719 62.1115 180.533 64.0545 179.126 66.5322C178.995 66.7322 178.882 66.9052 178.826 66.9732C178.382 67.53 177.822 67.9826 177.184 68.2993C176.546 68.616 175.847 68.789 175.135 68.8062C174.422 68.7802 173.721 68.6098 173.076 68.3052C172.43 68.0006 171.853 67.5682 171.379 67.0342C171.271 66.8905 171.171 66.7409 171.079 66.5862C170.091 64.8493 168.714 63.3643 167.057 62.2472C165.399 61.1301 163.506 60.4111 161.525 60.1462C160.945 60.0681 160.36 60.0287 159.774 60.0282C156.356 60.0383 153.082 61.4035 150.669 63.8243C148.256 66.2452 146.901 69.5242 146.902 72.9422C146.92 90.0422 163.002 101.368 169.909 105.442C170.45 105.762 170.843 106.283 171 106.892C171.157 107.501 171.066 108.147 170.746 108.688C170.536 109.044 170.237 109.338 169.879 109.543C169.52 109.748 169.115 109.856 168.702 109.857Z" fill="black"/>
</g>
</svg>
